# xmcd CD database file
#
# Track frame offsets:
#	150
#	23902
#	65165
#	95257
#	114112
#	144617
#
# Disc length: 2353 seconds
#
# Revision: 0
# Processed by: cddbd v1.5.2PL0 Copyright (c) Steve Scherf et al.
# Submitted via: CDex 1.51
#
DISCID=4b092f06
DTITLE=The Curtis Fuller Quintet - South American Cookin'
DYEAR=1961
DGENRE=Jazz
TTITLE0=Hello Young Lovers
TTITLE1=Besame Mucho
TTITLE2=Willow Weep for Me
TTITLE3=One Note Samba
TTITLE4=Wee Dot
TTITLE5=Autumn Leaves
EXTD=YEAR: 1961
EXTT0=
EXTT1=
EXTT2=
EXTT3=
EXTT4=
EXTT5=
PLAYORDER=
